<svg width="36" height="36" viewBox="0 0 36 36" fill="none" xmlns="http://www.w3.org/2000/svg">
<rect width="36" height="36" rx="6" fill="white" fill-opacity="0.2"/>
<path fill-rule="evenodd" clip-rule="evenodd" d="M18.2959 8.50453C16.4481 8.443 14.5813 8.94711 12.9696 10.0229C11.1594 11.2325 9.8944 13.0187 9.31171 15.0155C9.1508 14.9959 8.95811 15.0045 8.72931 15.0692C7.87507 15.3116 7.23258 16.0116 6.94369 16.6281C6.569 17.4315 6.41098 18.494 6.57767 19.5909C6.7432 20.6844 7.20514 21.5857 7.78291 22.1453C8.36243 22.7052 9.01676 22.8872 9.66676 22.7505C10.6345 22.544 11.1144 22.3894 10.9789 21.4878L10.3228 17.1172C10.4551 14.7518 11.6797 12.525 13.728 11.1557C16.4695 9.3244 20.0639 9.44169 22.6789 11.4492C24.498 12.8439 25.5542 14.9338 25.6761 17.1276L25.2174 20.1849C24.1941 22.9851 21.6574 24.9247 18.722 25.2H16.7674C16.263 25.2 15.8568 25.6062 15.8568 26.11V26.5901C15.8568 27.0942 16.263 27.5004 16.7674 27.5004H19.2319C19.736 27.5004 20.1404 27.0942 20.1404 26.5901V26.3391C22.3539 25.7989 24.286 24.4385 25.5441 22.5414L26.3336 22.7508C26.9761 22.9175 27.6382 22.7052 28.2175 22.1456C28.7952 21.5857 29.2569 20.6847 29.4227 19.5912C29.59 18.4943 29.4273 17.4335 29.057 16.6284C28.6852 15.8232 28.1314 15.3119 27.4921 15.1285C27.2243 15.0513 26.9336 15.023 26.6843 15.0155C26.1574 13.21 25.0726 11.5679 23.5092 10.369C21.972 9.18949 20.1436 8.5652 18.2959 8.50453Z" fill="white"/>
<path fill-rule="evenodd" clip-rule="evenodd" d="M21.1804 16.3674C21.8319 16.3674 22.36 16.8955 22.3614 17.5487C22.36 18.2001 21.8319 18.7297 21.1804 18.7297C20.5272 18.7297 19.9977 18.2001 19.9977 17.5487C19.9977 16.8958 20.5275 16.3674 21.1804 16.3674ZM17.9998 16.3674C18.6526 16.3674 19.1807 16.8955 19.1807 17.5487C19.1807 18.2001 18.6526 18.7297 17.9998 18.7297C17.3463 18.7297 16.8182 18.2001 16.8182 17.5487C16.8182 16.8958 17.3463 16.3674 17.9998 16.3674ZM14.8202 16.3674C15.4717 16.3674 16.0012 16.8955 16.0012 17.5487C16.0012 18.2001 15.4717 18.7297 14.8202 18.7297C14.1674 18.7297 13.639 18.2001 13.639 17.5487C13.639 16.8958 14.1674 16.3674 14.8202 16.3674ZM17.9998 11.2939C14.536 11.2939 11.7447 13.9933 11.7447 17.5487C11.7447 19.2563 12.3904 20.7655 13.4422 21.8728L13.069 23.546C12.9459 24.0966 13.3278 24.467 13.8227 24.1914L15.4567 23.2799C16.2332 23.6171 17.0921 23.8034 17.9998 23.8034C21.4647 23.8034 24.2542 21.1058 24.2542 17.5487C24.2542 13.9933 21.4647 11.2939 17.9998 11.2939Z" fill="white"/>
</svg>
