<svg width="33" height="33" viewBox="0 0 33 33" fill="none" xmlns="http://www.w3.org/2000/svg">
<path d="M32.9011 16.4626C32.9011 21.3988 30.73 25.8291 27.292 28.8459L18.2761 13.2169L16.4531 10.057L14.6302 13.2169L5.61172 28.8472C2.17115 25.8304 0 21.4001 0 16.4626C0 11.5252 2.09059 7.26388 5.41682 4.25095C5.76114 3.94016 6.11975 3.64238 6.48875 3.3602C6.70054 3.19896 6.91622 3.04292 7.13451 2.89208C7.20727 2.84136 7.28133 2.79195 7.35409 2.74253C7.42815 2.69442 7.50221 2.64501 7.57757 2.59689C7.57757 2.59689 7.57757 2.59689 7.57887 2.59559C7.65293 2.54878 7.72699 2.50197 7.80105 2.45516C7.87641 2.40834 7.95307 2.36153 8.02843 2.31602C8.10379 2.2718 8.17915 2.22629 8.25581 2.18208C8.25581 2.18208 8.25711 2.18208 8.25841 2.18208C8.29349 2.16127 8.32857 2.14177 8.36365 2.12226C8.8444 1.85049 9.33943 1.60212 9.84746 1.37976C9.9631 1.32905 10.0813 1.27833 10.1996 1.23022C10.3178 1.1821 10.436 1.13529 10.5556 1.08848C10.6283 1.05987 10.6998 1.03386 10.7739 1.00656C10.8362 0.98315 10.8986 0.961044 10.9623 0.938938C11.0246 0.916832 11.0883 0.894726 11.1507 0.87262C11.1572 0.871319 11.1637 0.867418 11.1702 0.866118C11.2676 0.833609 11.3664 0.8011 11.4638 0.769892C11.569 0.736082 11.6743 0.703573 11.7795 0.672365C11.8614 0.647658 11.9419 0.624251 12.0251 0.602145C12.0628 0.590442 12.1018 0.580039 12.1394 0.569636C12.1394 0.569636 12.1394 0.569636 12.1407 0.569636C12.2265 0.54493 12.3136 0.522824 12.3993 0.500717C12.4162 0.496816 12.4344 0.491615 12.4513 0.487714C12.5357 0.466908 12.6202 0.446102 12.7059 0.425297C12.7345 0.418795 12.7644 0.412293 12.7943 0.404491C12.8852 0.383685 12.9762 0.36418 13.0684 0.345975C13.1568 0.32777 13.2452 0.309565 13.3335 0.29266C13.3387 0.29266 13.3452 0.29136 13.3504 0.290059C13.3868 0.283558 13.4206 0.277056 13.4569 0.269254C13.5479 0.252349 13.6375 0.236745 13.7285 0.221141C13.8104 0.208137 13.8909 0.195133 13.9728 0.18213C14.0247 0.174328 14.0767 0.166525 14.1274 0.160024C14.2378 0.143119 14.3496 0.128815 14.4613 0.115812C14.5276 0.106709 14.5925 0.100207 14.6588 0.0937054C14.7043 0.088504 14.7511 0.0833026 14.7978 0.0794015C14.8693 0.0715993 14.9408 0.0650975 15.0135 0.0585958C15.0694 0.0533943 15.1253 0.0494933 15.1824 0.0455922C15.185 0.0455922 15.1876 0.0455922 15.1902 0.0455922C15.2643 0.0403907 15.3396 0.0351893 15.4137 0.0299879C15.528 0.0234861 15.6424 0.0169843 15.758 0.0130832C15.8464 0.00918216 15.9347 0.00658144 16.0244 0.00398073C16.0543 0.00398073 16.0841 0.00268037 16.114 0.00268037C16.2258 7.96547e-05 16.3362 -0.0012207 16.448 -0.0012207H16.4493C16.5597 -0.0012207 16.6701 -0.0012207 16.7793 0.00268037C16.8105 0.00268037 16.8403 0.00268037 16.8715 0.00398073C16.9612 0.00528109 17.0508 0.00918216 17.1405 0.0130832C17.2561 0.0182847 17.3705 0.0234861 17.4848 0.0299879C17.5615 0.0351893 17.6381 0.0390904 17.7148 0.0468925C17.7758 0.0507936 17.8356 0.055995 17.8954 0.0611965C17.9733 0.0676983 18.0526 0.0755004 18.1306 0.0833026C18.176 0.088504 18.2228 0.0924051 18.2683 0.0976065C18.3138 0.102808 18.3592 0.106709 18.4047 0.113211C18.4515 0.118412 18.4983 0.123614 18.5437 0.130115C18.6126 0.137918 18.6815 0.14702 18.749 0.157423C18.8166 0.166525 18.8855 0.176928 18.953 0.187331C19.0284 0.199034 19.105 0.210738 19.1791 0.223741C19.2843 0.240646 19.3883 0.260151 19.4935 0.279657C19.4974 0.279657 19.5013 0.279657 19.5052 0.280957C19.6079 0.300462 19.7105 0.321268 19.8132 0.342074C19.8288 0.344674 19.8443 0.347275 19.8586 0.351176C19.9574 0.371982 20.0561 0.394088 20.1536 0.416194C20.2276 0.433099 20.2991 0.450003 20.3706 0.468208C20.4316 0.482512 20.4927 0.496816 20.5538 0.513721C20.6213 0.530626 20.6889 0.548831 20.7565 0.567036C20.8149 0.58264 20.876 0.599545 20.9358 0.616449C21.1151 0.667163 21.2931 0.720478 21.4698 0.777694C21.5283 0.795899 21.5854 0.814104 21.6426 0.834909C21.6712 0.842712 21.6972 0.851814 21.7244 0.862217C21.7322 0.863517 21.7387 0.866118 21.7465 0.868719C21.8024 0.888224 21.8583 0.90773 21.9141 0.927235C21.9778 0.949341 22.0415 0.971447 22.1038 0.994853C22.1103 0.996154 22.1168 1.00005 22.1233 1.00136C22.3065 1.06767 22.4871 1.13919 22.6651 1.21331C22.7314 1.23932 22.799 1.26793 22.8652 1.29524C23.0458 1.37066 23.2239 1.44998 23.4006 1.5332C23.4629 1.56181 23.5266 1.59172 23.589 1.62293C23.8267 1.73736 24.0593 1.85699 24.2906 1.98313C24.2906 1.98313 24.2919 1.98313 24.2932 1.98313C24.4088 2.04554 24.5232 2.11056 24.6375 2.17558C24.6947 2.20809 24.7518 2.2419 24.8077 2.27571C24.8649 2.30952 24.922 2.34332 24.9779 2.37843C25.0338 2.41224 25.091 2.44735 25.1468 2.48246C25.2586 2.55268 25.3703 2.6242 25.4807 2.69702C25.5353 2.73343 25.5912 2.76984 25.6458 2.80755C25.7003 2.84396 25.7549 2.88167 25.8095 2.91938C25.9173 2.9948 26.0252 3.07152 26.1317 3.14955C26.172 3.17815 26.211 3.20806 26.2512 3.23797C26.424 3.36541 26.593 3.49674 26.7593 3.63198C26.8112 3.67229 26.8619 3.7139 26.9126 3.75681C26.9529 3.78932 26.9918 3.82183 27.0321 3.85564C27.0932 3.90766 27.1543 3.95967 27.2153 4.01168C27.2205 4.01689 27.227 4.02209 27.2322 4.02729C27.2972 4.0832 27.3621 4.14042 27.4258 4.19894C27.6259 4.37708 27.8195 4.56174 28.0105 4.74899C28.0729 4.8114 28.1339 4.87252 28.1963 4.93624C28.2041 4.94404 28.2106 4.95184 28.2197 4.95964C28.273 5.01426 28.3275 5.07148 28.3808 5.12739C28.4445 5.19631 28.5094 5.26523 28.5731 5.33415C28.6576 5.42517 28.7394 5.5188 28.8226 5.61112C28.9044 5.70475 28.985 5.79968 29.0642 5.8946C29.1045 5.94272 29.1435 5.99083 29.1838 6.03894C31.503 8.87762 32.8946 12.5056 32.8946 16.4574L32.9011 16.4626ZM21.345 32.1969C21.3373 32.1995 21.3308 32.2008 21.323 32.2034C21.4048 32.1774 21.4867 32.1527 21.5685 32.1254C21.4945 32.1501 21.4204 32.1735 21.3463 32.1956L21.345 32.1969ZM20.8851 32.3348C21.0319 32.2932 21.1774 32.2503 21.323 32.2047C21.1774 32.2503 21.0319 32.2945 20.8851 32.3348Z" fill="url(#paint0_linear_4001_5773)"/>
<path d="M21.7972 32.0473C21.7413 32.0681 21.6842 32.0876 21.6283 32.1058C21.6075 32.1123 21.588 32.1188 21.5685 32.1266C21.4945 32.1513 21.4204 32.1747 21.3464 32.1968C21.1943 32.2449 21.0397 32.2904 20.8864 32.3333C20.8591 32.3412 20.8331 32.349 20.8058 32.3555C20.6135 32.4088 20.4186 32.4582 20.2212 32.505C20.2043 32.5089 20.1848 32.5128 20.1666 32.518C20.0678 32.5401 19.9678 32.5622 19.8677 32.5843C19.8651 32.5843 19.8625 32.5843 19.8599 32.5856C19.7508 32.6077 19.6417 32.6298 19.5312 32.6506C19.4195 32.6714 19.309 32.6922 19.1973 32.7105C19.1167 32.7235 19.0362 32.7365 18.9556 32.7495C18.9413 32.7508 18.9257 32.7547 18.9115 32.756C18.8751 32.7612 18.8374 32.7664 18.801 32.7716C18.7529 32.7794 18.7036 32.7859 18.6555 32.7924C18.5736 32.8041 18.4905 32.8145 18.4086 32.8236C18.3566 32.8301 18.306 32.8366 18.254 32.8418C18.2137 32.847 18.1734 32.8509 18.1332 32.8548C18.0357 32.8652 17.9396 32.8743 17.8421 32.8821C17.8395 32.8821 17.8369 32.8821 17.833 32.8821C17.6069 32.9016 17.3783 32.9146 17.1496 32.925C17.0586 32.9289 16.9677 32.9315 16.8754 32.9341C16.8443 32.9341 16.8131 32.9354 16.7819 32.9354C16.6727 32.938 16.5623 32.9393 16.4519 32.9393C16.3414 32.9393 16.231 32.9393 16.1218 32.9354C16.0894 32.9354 16.0595 32.9354 16.0283 32.9341C15.936 32.9328 15.8451 32.9289 15.7541 32.925C15.6567 32.9211 15.5605 32.9159 15.4644 32.9107C15.3708 32.9055 15.2786 32.899 15.1863 32.8912C15.1253 32.8873 15.0642 32.8821 15.0044 32.8769C14.8849 32.8665 14.7667 32.8561 14.6484 32.8418C14.5964 32.8366 14.5445 32.8314 14.4938 32.8236C14.3795 32.8106 14.2638 32.7963 14.1508 32.7794C14.0832 32.7703 14.0144 32.7599 13.9468 32.7495C13.8506 32.7352 13.7558 32.7196 13.6609 32.704C13.57 32.6883 13.479 32.6714 13.3881 32.6545C13.3712 32.6519 13.3543 32.648 13.3374 32.6454C13.253 32.6298 13.1685 32.6129 13.0853 32.5947C13.0529 32.5882 13.0204 32.5817 12.9879 32.5739C12.971 32.5713 12.9528 32.5674 12.9359 32.5635C12.8619 32.5466 12.7878 32.531 12.7137 32.5128C12.6059 32.4881 12.4955 32.4608 12.3889 32.4335C12.2811 32.4062 12.1732 32.3776 12.0654 32.3477H12.0641C11.9575 32.319 11.851 32.2878 11.7445 32.2553C11.5314 32.1916 11.3196 32.124 11.1104 32.0512C10.0865 31.7001 9.10816 31.2502 8.18565 30.7131L8.19085 30.704C8.20384 30.7105 8.21554 30.7183 8.22723 30.7248L16.4545 16.4612L24.6817 30.7222C24.6947 30.7157 24.7064 30.7079 24.7181 30.7014L24.7233 30.7105C23.802 31.2476 22.8224 31.6962 21.7998 32.0473H21.7972Z" fill="#00662C"/>
<defs>
<linearGradient id="paint0_linear_4001_5773" x1="28.373" y1="0.176928" x2="8.75105" y2="26.9375" gradientUnits="userSpaceOnUse">
<stop stop-color="#BFFF00"/>
<stop offset="1" stop-color="#2E8523"/>
</linearGradient>
</defs>
</svg>
