<svg width="54" height="55" viewBox="0 0 54 55" fill="none" xmlns="http://www.w3.org/2000/svg">
<g filter="url(#filter0_d_598_2652)">
<path fill-rule="evenodd" clip-rule="evenodd" d="M40.7069 32.739L39.3179 35.1485L35.5605 35.1467V33.6879L38.4786 33.6894L40.3946 30.3656L40.4189 30.3234L40.8874 29.5098L40.8878 29.5101L42.3105 27.0419L41.1421 25.0104L42.2071 23.9424L43.9905 27.0427L41.6542 31.0956L40.7069 32.739V32.739Z" fill="url(#paint0_linear_598_2652)"/>
<path fill-rule="evenodd" clip-rule="evenodd" d="M25.6117 37.1234L23.6367 35.1411L20.3546 35.1396V35.1401H18.8997V35.1389L15.8795 35.1374L15.4844 33.659L15.4956 33.6785L19.3245 33.6803L20.3615 33.6808V33.6872H23.7069H24.2418L24.615 34.0614L26.6403 36.0921L25.6117 37.1234Z" fill="url(#paint1_linear_598_2652)"/>
<path fill-rule="evenodd" clip-rule="evenodd" d="M39.0057 39.0931L34.4955 40.3025L32.6668 40.7929L32.6651 40.7939L29.9697 41.518L29.4373 40.9764L29.4464 40.9711L27.3301 38.8473L28.3589 37.8158L30.4209 39.8851L33.5268 39.0522L35.0717 38.6371V38.6379L37.8184 37.9014L38.4247 35.637H39.931L39.0057 39.0931Z" fill="url(#paint2_linear_598_2652)"/>
<path fill-rule="evenodd" clip-rule="evenodd" d="M28.3684 16.9462L30.3433 18.9282L34.5301 18.9303H35.0804V18.9305L38.0561 18.9319L38.446 20.3908L34.6557 20.3891H33.6248V20.3885H33.6185V20.3823H30.2733H29.7382L29.365 20.008L27.3398 17.9775L28.3684 16.9462Z" fill="url(#paint3_linear_598_2652)"/>
<path fill-rule="evenodd" clip-rule="evenodd" d="M14.0508 18.4333L14.9764 14.9764L19.4866 13.7669L21.3152 13.2766L23.9969 12.5576L24.536 13.0981L24.5357 13.0983L26.6517 15.222L25.623 16.2535L23.5613 14.1843L21.876 14.6362L21.8755 14.6366L18.9104 15.4331V15.4315L16.1636 16.168L15.5571 18.4333H14.3812H14.0508Z" fill="url(#paint4_linear_598_2652)"/>
<path fill-rule="evenodd" clip-rule="evenodd" d="M13.0936 24.5599L13.093 24.5593L11.6703 27.0274L12.8388 29.0591L11.7737 30.1271L9.99023 27.0267L12.3266 22.9737L14.6629 18.9208L15.4254 18.9212L15.4253 18.9212L18.4197 18.9226V20.3814L15.5022 20.38L13.9545 23.0649L13.0936 24.5599Z" fill="url(#paint5_linear_598_2652)"/>
<path fill-rule="evenodd" clip-rule="evenodd" d="M23.5742 39.8556L24.9954 38.4322L24.9957 38.4325L25.6083 37.8182L25.9568 37.4691L25.9567 37.4689L26.9853 36.4375L26.986 36.4382L27.001 36.4232L28.9655 34.4553L28.9651 34.4539L29.7298 33.6871H30.2665H33.1309V35.1456L30.3361 35.1443L28.4809 37.0026L28.4808 37.0024L28.0259 37.4585L27.9951 37.4894L26.9856 38.5016L26.9851 38.5011L24.8789 40.6109L23.5742 39.8556Z" fill="url(#paint6_linear_598_2652)"/>
<path fill-rule="evenodd" clip-rule="evenodd" d="M16.9277 25.6533L18.9051 23.6727L18.9071 19.3482L18.9088 15.9393L20.3637 15.5483L20.362 19.349L20.3615 20.3825H20.3615V20.4287L20.3601 23.1878L20.3615 23.1886V23.7446V24.282L19.9876 24.6569L19.5964 25.0491L19.5909 25.0476L17.9564 26.6848L16.9277 25.6533Z" fill="url(#paint7_linear_598_2652)"/>
<path fill-rule="evenodd" clip-rule="evenodd" d="M15.5543 27.0301L15.5551 27.0293L13.4512 24.9178L14.2044 23.6097L16.884 26.2991L17.1709 26.5869L17.6128 27.03L17.6126 27.0302L17.617 27.0347L17.6126 27.0392L19.978 29.4109H19.978L20.3626 29.7965V30.3177V30.8725L20.3577 30.8754L20.3566 33.192H18.9017L18.903 30.3892L16.5833 28.0612L16.583 28.0615L15.5543 27.0301Z" fill="url(#paint8_linear_598_2652)"/>
<path fill-rule="evenodd" clip-rule="evenodd" d="M14.9651 39.0816L13.7589 34.5595L13.2698 32.7259V32.7258L12.5527 30.0373L15.21 27.3755L16.2387 28.407L14.1752 30.4741L15.1644 34.1826L16.1536 37.8912L18.4125 38.4992V40.0096L14.9651 39.0816Z" fill="url(#paint9_linear_598_2652)"/>
<path fill-rule="evenodd" clip-rule="evenodd" d="M37.0532 28.4162L35.0759 30.397L35.0738 34.7213L35.0723 38.1312L33.6172 38.5221L33.6188 35.114V33.6872H33.6194V33.6871L33.6208 30.8817L33.6194 30.8809V30.3249V29.7877L33.9933 29.4127L34.3846 29.0205L34.3901 29.022L36.0245 27.3848L37.0532 28.4162Z" fill="url(#paint10_linear_598_2652)"/>
<path fill-rule="evenodd" clip-rule="evenodd" d="M38.4272 27.0396L38.4267 27.0401L40.5309 29.1519L39.7777 30.4599L37.0978 27.7703L36.7668 27.4381L36.369 27.0394L36.3693 27.0392L36.3648 27.0347L36.3693 27.0303L34.0037 24.6585L33.6191 24.2729V23.7516V23.197L33.6242 23.194L33.6252 20.8778H35.0801L35.0788 23.6802L37.3984 26.0082H37.3985L38.4272 27.0396Z" fill="url(#paint11_linear_598_2652)"/>
<path fill-rule="evenodd" clip-rule="evenodd" d="M35.5703 14.0599L39.0175 14.9878L40.2238 19.5099L40.7128 21.3432L40.8069 21.5069L40.7568 21.5085L41.43 24.0322L40.8907 24.5724L38.7725 26.6942L37.7438 25.6627L39.8075 23.5954L39.3568 21.9056L39.3563 21.9048L38.5619 18.9322H38.5637L37.8291 16.1782L35.5703 15.5702V14.0599Z" fill="url(#paint12_linear_598_2652)"/>
<path fill-rule="evenodd" clip-rule="evenodd" d="M29.458 13.1014L29.4588 13.1006L26.9971 11.6741L24.9714 12.8454L23.9063 11.7774H23.9062L26.9979 9.98969L31.0401 12.3322L35.0823 14.6746L35.0804 18.4416H33.6256L33.627 15.5162L31.3925 14.2213L29.458 13.1014Z" fill="url(#paint13_linear_598_2652)"/>
<path fill-rule="evenodd" clip-rule="evenodd" d="M23.6451 18.9251L25.967 16.5993L25.9668 16.5992L26.9956 15.5677L26.9962 15.5683L29.1019 13.459L30.4065 14.2142L28.0244 16.6003L28.0247 16.6005L26.996 17.632L26.9952 17.6312L25.0158 19.6141L25.0162 19.6157L24.2515 20.3823H23.7147H20.8496V18.9238L23.6451 18.9251Z" fill="url(#paint14_linear_598_2652)"/>
<path fill-rule="evenodd" clip-rule="evenodd" d="M26.9828 44.0798L22.9406 41.7373L18.8984 39.3949L18.8987 38.6302L18.8988 38.6303L18.9002 35.6287H20.3552L20.3537 38.5533L23.6688 40.4743L23.8855 40.6L24.5223 40.9686L24.5219 40.9689L26.9836 42.3954L29.0098 41.2238L30.075 42.2918L26.9828 44.0798Z" fill="url(#paint15_linear_598_2652)"/>
<rect width="2.16812" height="2.16812" transform="translate(24.4121 24.3781)" fill="url(#paint16_linear_598_2652)"/>
<rect width="2.16812" height="2.16812" transform="translate(27.4336 24.3781)" fill="url(#paint17_linear_598_2652)"/>
<rect width="2.16812" height="2.16812" transform="translate(27.4336 27.4004)" fill="url(#paint18_linear_598_2652)"/>
<rect width="2.16812" height="2.16812" transform="translate(24.4121 27.4004)" fill="url(#paint19_linear_598_2652)"/>
</g>
<defs>
<filter id="filter0_d_598_2652" x="0.000574112" y="2.47955e-05" width="53.9793" height="54.0695" filterUnits="userSpaceOnUse" color-interpolation-filters="sRGB">
<feFlood flood-opacity="0" result="BackgroundImageFix"/>
<feColorMatrix in="SourceAlpha" type="matrix" values="0 0 0 0 0 0 0 0 0 0 0 0 0 0 0 0 0 0 127 0" result="hardAlpha"/>
<feOffset/>
<feGaussianBlur stdDeviation="4.99483"/>
<feComposite in2="hardAlpha" operator="out"/>
<feColorMatrix type="matrix" values="0 0 0 0 1 0 0 0 0 1 0 0 0 0 1 0 0 0 1 0"/>
<feBlend mode="normal" in2="BackgroundImageFix" result="effect1_dropShadow_598_2652"/>
<feBlend mode="normal" in="SourceGraphic" in2="effect1_dropShadow_598_2652" result="shape"/>
</filter>
<linearGradient id="paint0_linear_598_2652" x1="39.7755" y1="23.9424" x2="39.7755" y2="35.1485" gradientUnits="userSpaceOnUse">
<stop stop-color="#74B5FF"/>
<stop offset="1" stop-color="#407AFF"/>
</linearGradient>
<linearGradient id="paint1_linear_598_2652" x1="21.0623" y1="33.659" x2="21.0623" y2="37.1234" gradientUnits="userSpaceOnUse">
<stop stop-color="#74B5FF"/>
<stop offset="1" stop-color="#407AFF"/>
</linearGradient>
<linearGradient id="paint2_linear_598_2652" x1="33.6306" y1="35.637" x2="33.6306" y2="41.518" gradientUnits="userSpaceOnUse">
<stop stop-color="#74B5FF"/>
<stop offset="1" stop-color="#407AFF"/>
</linearGradient>
<linearGradient id="paint3_linear_598_2652" x1="32.8929" y1="16.9462" x2="32.8929" y2="20.3908" gradientUnits="userSpaceOnUse">
<stop stop-color="#74B5FF"/>
<stop offset="1" stop-color="#407AFF"/>
</linearGradient>
<linearGradient id="paint4_linear_598_2652" x1="20.3513" y1="12.5576" x2="20.3513" y2="18.4333" gradientUnits="userSpaceOnUse">
<stop stop-color="#74B5FF"/>
<stop offset="1" stop-color="#407AFF"/>
</linearGradient>
<linearGradient id="paint5_linear_598_2652" x1="14.205" y1="18.9208" x2="14.205" y2="30.1271" gradientUnits="userSpaceOnUse">
<stop stop-color="#74B5FF"/>
<stop offset="1" stop-color="#407AFF"/>
</linearGradient>
<linearGradient id="paint6_linear_598_2652" x1="28.3526" y1="33.6871" x2="28.3526" y2="40.6109" gradientUnits="userSpaceOnUse">
<stop stop-color="#74B5FF"/>
<stop offset="1" stop-color="#407AFF"/>
</linearGradient>
<linearGradient id="paint7_linear_598_2652" x1="18.6457" y1="15.5483" x2="18.6457" y2="26.6848" gradientUnits="userSpaceOnUse">
<stop stop-color="#74B5FF"/>
<stop offset="1" stop-color="#407AFF"/>
</linearGradient>
<linearGradient id="paint8_linear_598_2652" x1="16.9069" y1="23.6097" x2="16.9069" y2="33.192" gradientUnits="userSpaceOnUse">
<stop stop-color="#74B5FF"/>
<stop offset="1" stop-color="#407AFF"/>
</linearGradient>
<linearGradient id="paint9_linear_598_2652" x1="15.4826" y1="27.3755" x2="15.4826" y2="40.0096" gradientUnits="userSpaceOnUse">
<stop stop-color="#74B5FF"/>
<stop offset="1" stop-color="#407AFF"/>
</linearGradient>
<linearGradient id="paint10_linear_598_2652" x1="35.3352" y1="27.3848" x2="35.3352" y2="38.5221" gradientUnits="userSpaceOnUse">
<stop stop-color="#74B5FF"/>
<stop offset="1" stop-color="#407AFF"/>
</linearGradient>
<linearGradient id="paint11_linear_598_2652" x1="37.075" y1="20.8778" x2="37.075" y2="30.4599" gradientUnits="userSpaceOnUse">
<stop stop-color="#74B5FF"/>
<stop offset="1" stop-color="#407AFF"/>
</linearGradient>
<linearGradient id="paint12_linear_598_2652" x1="38.5002" y1="14.0599" x2="38.5002" y2="26.6942" gradientUnits="userSpaceOnUse">
<stop stop-color="#74B5FF"/>
<stop offset="1" stop-color="#407AFF"/>
</linearGradient>
<linearGradient id="paint13_linear_598_2652" x1="29.4943" y1="9.98969" x2="29.4943" y2="18.4416" gradientUnits="userSpaceOnUse">
<stop stop-color="#74B5FF"/>
<stop offset="1" stop-color="#407AFF"/>
</linearGradient>
<linearGradient id="paint14_linear_598_2652" x1="25.6281" y1="13.459" x2="25.6281" y2="20.3823" gradientUnits="userSpaceOnUse">
<stop stop-color="#74B5FF"/>
<stop offset="1" stop-color="#407AFF"/>
</linearGradient>
<linearGradient id="paint15_linear_598_2652" x1="24.4867" y1="35.6287" x2="24.4867" y2="44.0798" gradientUnits="userSpaceOnUse">
<stop stop-color="#74B5FF"/>
<stop offset="1" stop-color="#407AFF"/>
</linearGradient>
<linearGradient id="paint16_linear_598_2652" x1="1.08406" y1="0" x2="1.08406" y2="2.16812" gradientUnits="userSpaceOnUse">
<stop stop-color="#74B5FF"/>
<stop offset="1" stop-color="#407AFF"/>
</linearGradient>
<linearGradient id="paint17_linear_598_2652" x1="1.08406" y1="0" x2="1.08406" y2="2.16812" gradientUnits="userSpaceOnUse">
<stop stop-color="#74B5FF"/>
<stop offset="1" stop-color="#407AFF"/>
</linearGradient>
<linearGradient id="paint18_linear_598_2652" x1="1.08406" y1="0" x2="1.08406" y2="2.16812" gradientUnits="userSpaceOnUse">
<stop stop-color="#74B5FF"/>
<stop offset="1" stop-color="#407AFF"/>
</linearGradient>
<linearGradient id="paint19_linear_598_2652" x1="1.08406" y1="0" x2="1.08406" y2="2.16812" gradientUnits="userSpaceOnUse">
<stop stop-color="#74B5FF"/>
<stop offset="1" stop-color="#407AFF"/>
</linearGradient>
</defs>
</svg>
