<svg width="177" height="55" viewBox="0 0 177 55" fill="none" xmlns="http://www.w3.org/2000/svg">
<g filter="url(#filter0_d_595_1745)">
<path fill-rule="evenodd" clip-rule="evenodd" d="M40.7069 32.739L39.3179 35.1485L35.5605 35.1467V33.6879L38.4786 33.6894L40.3946 30.3656L40.4189 30.3234L40.8874 29.5098L40.8878 29.5101L42.3105 27.0419L41.1421 25.0104L42.2071 23.9424L43.9905 27.0427L41.6542 31.0956L40.7069 32.739V32.739Z" fill="url(#paint0_linear_595_1745)"/>
<path fill-rule="evenodd" clip-rule="evenodd" d="M25.6117 37.1234L23.6367 35.1411L20.3546 35.1396V35.1401H18.8997V35.1389L15.8795 35.1374L15.4844 33.659L15.4956 33.6785L19.3245 33.6803L20.3615 33.6808V33.6872H23.7069H24.2418L24.615 34.0614L26.6403 36.0921L25.6117 37.1234Z" fill="url(#paint1_linear_595_1745)"/>
<path fill-rule="evenodd" clip-rule="evenodd" d="M39.0057 39.0931L34.4955 40.3025L32.6668 40.7929L32.6651 40.7939L29.9697 41.518L29.4373 40.9764L29.4464 40.9711L27.3301 38.8473L28.3589 37.8158L30.4209 39.8851L33.5268 39.0522L35.0717 38.6371V38.6379L37.8184 37.9014L38.4247 35.637H39.931L39.0057 39.0931Z" fill="url(#paint2_linear_595_1745)"/>
<path fill-rule="evenodd" clip-rule="evenodd" d="M28.3684 16.9462L30.3433 18.9282L34.5301 18.9303H35.0804V18.9305L38.0561 18.9319L38.446 20.3908L34.6557 20.3891H33.6248V20.3885H33.6185V20.3823H30.2733H29.7382L29.365 20.008L27.3398 17.9775L28.3684 16.9462Z" fill="url(#paint3_linear_595_1745)"/>
<path fill-rule="evenodd" clip-rule="evenodd" d="M14.0508 18.4333L14.9764 14.9764L19.4866 13.7669L21.3152 13.2766L23.9969 12.5576L24.536 13.0981L24.5357 13.0983L26.6517 15.222L25.623 16.2535L23.5613 14.1843L21.876 14.6362L21.8755 14.6366L18.9104 15.4331V15.4315L16.1636 16.168L15.5571 18.4333H14.3812H14.0508Z" fill="url(#paint4_linear_595_1745)"/>
<path fill-rule="evenodd" clip-rule="evenodd" d="M13.0936 24.5599L13.093 24.5593L11.6703 27.0274L12.8388 29.0591L11.7737 30.1271L9.99023 27.0267L12.3266 22.9737L14.6629 18.9208L15.4254 18.9212L15.4253 18.9212L18.4197 18.9226V20.3814L15.5022 20.38L13.9545 23.0649L13.0936 24.5599Z" fill="url(#paint5_linear_595_1745)"/>
<path fill-rule="evenodd" clip-rule="evenodd" d="M23.5742 39.8556L24.9954 38.4322L24.9957 38.4325L25.6083 37.8182L25.9568 37.4691L25.9567 37.4689L26.9853 36.4375L26.986 36.4382L27.001 36.4232L28.9655 34.4553L28.9651 34.4539L29.7298 33.6871H30.2665H33.1309V35.1456L30.3361 35.1443L28.4809 37.0026L28.4808 37.0024L28.0259 37.4585L27.9951 37.4894L26.9856 38.5016L26.9851 38.5011L24.8789 40.6109L23.5742 39.8556Z" fill="url(#paint6_linear_595_1745)"/>
<path fill-rule="evenodd" clip-rule="evenodd" d="M16.9277 25.6533L18.9051 23.6727L18.9071 19.3482L18.9088 15.9393L20.3637 15.5483L20.362 19.349L20.3615 20.3825H20.3615V20.4287L20.3601 23.1878L20.3615 23.1886V23.7446V24.282L19.9876 24.6569L19.5964 25.0491L19.5909 25.0476L17.9564 26.6848L16.9277 25.6533Z" fill="url(#paint7_linear_595_1745)"/>
<path fill-rule="evenodd" clip-rule="evenodd" d="M15.5543 27.0301L15.5551 27.0293L13.4512 24.9178L14.2044 23.6097L16.884 26.2991L17.1709 26.5869L17.6128 27.03L17.6126 27.0302L17.617 27.0347L17.6126 27.0392L19.978 29.4109H19.978L20.3626 29.7965V30.3177V30.8725L20.3577 30.8754L20.3566 33.192H18.9017L18.903 30.3892L16.5833 28.0612L16.583 28.0615L15.5543 27.0301Z" fill="url(#paint8_linear_595_1745)"/>
<path fill-rule="evenodd" clip-rule="evenodd" d="M14.9651 39.0816L13.7589 34.5595L13.2698 32.7259V32.7258L12.5527 30.0373L15.21 27.3755L16.2387 28.407L14.1752 30.4741L15.1644 34.1826L16.1536 37.8912L18.4125 38.4992V40.0096L14.9651 39.0816Z" fill="url(#paint9_linear_595_1745)"/>
<path fill-rule="evenodd" clip-rule="evenodd" d="M37.0532 28.4162L35.0759 30.397L35.0738 34.7213L35.0723 38.1312L33.6172 38.5221L33.6188 35.114V33.6872H33.6194V33.6871L33.6208 30.8817L33.6194 30.8809V30.3249V29.7877L33.9933 29.4127L34.3846 29.0205L34.3901 29.022L36.0245 27.3848L37.0532 28.4162Z" fill="url(#paint10_linear_595_1745)"/>
<path fill-rule="evenodd" clip-rule="evenodd" d="M38.4272 27.0396L38.4267 27.0401L40.5309 29.1519L39.7777 30.4599L37.0978 27.7703L36.7668 27.4381L36.369 27.0394L36.3693 27.0392L36.3648 27.0347L36.3693 27.0303L34.0037 24.6585L33.6191 24.2729V23.7516V23.197L33.6242 23.194L33.6252 20.8778H35.0801L35.0788 23.6802L37.3984 26.0082H37.3985L38.4272 27.0396Z" fill="url(#paint11_linear_595_1745)"/>
<path fill-rule="evenodd" clip-rule="evenodd" d="M35.5703 14.0599L39.0175 14.9878L40.2238 19.5099L40.7128 21.3432L40.8069 21.5069L40.7568 21.5085L41.43 24.0322L40.8907 24.5724L38.7725 26.6942L37.7438 25.6627L39.8075 23.5954L39.3568 21.9056L39.3563 21.9048L38.5619 18.9322H38.5637L37.8291 16.1782L35.5703 15.5702V14.0599Z" fill="url(#paint12_linear_595_1745)"/>
<path fill-rule="evenodd" clip-rule="evenodd" d="M29.458 13.1014L29.4588 13.1006L26.9971 11.6741L24.9714 12.8454L23.9063 11.7774H23.9062L26.9979 9.98969L31.0401 12.3322L35.0823 14.6746L35.0804 18.4416H33.6256L33.627 15.5162L31.3925 14.2213L29.458 13.1014Z" fill="url(#paint13_linear_595_1745)"/>
<path fill-rule="evenodd" clip-rule="evenodd" d="M23.6451 18.9251L25.967 16.5993L25.9668 16.5992L26.9956 15.5677L26.9962 15.5683L29.1019 13.459L30.4065 14.2142L28.0244 16.6003L28.0247 16.6005L26.996 17.632L26.9952 17.6312L25.0158 19.6141L25.0162 19.6157L24.2515 20.3823H23.7147H20.8496V18.9238L23.6451 18.9251Z" fill="url(#paint14_linear_595_1745)"/>
<path fill-rule="evenodd" clip-rule="evenodd" d="M26.9828 44.0798L22.9406 41.7373L18.8984 39.3949L18.8987 38.6302L18.8988 38.6303L18.9002 35.6287H20.3552L20.3537 38.5533L23.6688 40.4743L23.8855 40.6L24.5223 40.9686L24.5219 40.9689L26.9836 42.3954L29.0098 41.2238L30.075 42.2918L26.9828 44.0798Z" fill="url(#paint15_linear_595_1745)"/>
<rect width="2.16812" height="2.16812" transform="translate(24.4121 24.3781)" fill="url(#paint16_linear_595_1745)"/>
<rect width="2.16812" height="2.16812" transform="translate(27.4336 24.3781)" fill="url(#paint17_linear_595_1745)"/>
<rect width="2.16812" height="2.16812" transform="translate(27.4336 27.4004)" fill="url(#paint18_linear_595_1745)"/>
<rect width="2.16812" height="2.16812" transform="translate(24.4121 27.4004)" fill="url(#paint19_linear_595_1745)"/>
</g>
<path d="M63.7226 24.8033C63.7226 25.4006 63.5786 25.9606 63.2906 26.4833C63.0133 27.0059 62.5706 27.4273 61.9626 27.7473C61.3653 28.0673 60.6079 28.2273 59.6906 28.2273H57.8186V32.5153H55.5786V21.3473H59.6906C60.5546 21.3473 61.2906 21.4966 61.8986 21.7953C62.5066 22.0939 62.9599 22.5046 63.2586 23.0273C63.5679 23.5499 63.7226 24.1419 63.7226 24.8033ZM59.5946 26.4193C60.2133 26.4193 60.6719 26.2806 60.9706 26.0033C61.2693 25.7153 61.4186 25.3153 61.4186 24.8033C61.4186 23.7153 60.8106 23.1713 59.5946 23.1713H57.8186V26.4193H59.5946ZM67.553 25.0273C67.841 24.5579 68.2143 24.1899 68.673 23.9233C69.1423 23.6566 69.6757 23.5233 70.273 23.5233V25.8753H69.681C68.977 25.8753 68.4437 26.0406 68.081 26.3713C67.729 26.7019 67.553 27.2779 67.553 28.0993V32.5153H65.313V23.6513H67.553V25.0273ZM75.7177 32.6593C74.8644 32.6593 74.0964 32.4726 73.4137 32.0993C72.7311 31.7153 72.1924 31.1766 71.7977 30.4833C71.4137 29.7899 71.2217 28.9899 71.2217 28.0833C71.2217 27.1766 71.4191 26.3766 71.8137 25.6833C72.2191 24.9899 72.7684 24.4566 73.4617 24.0833C74.1551 23.6993 74.9284 23.5073 75.7817 23.5073C76.6351 23.5073 77.4084 23.6993 78.1017 24.0833C78.7951 24.4566 79.3391 24.9899 79.7337 25.6833C80.1391 26.3766 80.3417 27.1766 80.3417 28.0833C80.3417 28.9899 80.1337 29.7899 79.7177 30.4833C79.3124 31.1766 78.7577 31.7153 78.0537 32.0993C77.3604 32.4726 76.5817 32.6593 75.7177 32.6593ZM75.7177 30.7073C76.1231 30.7073 76.5017 30.6113 76.8537 30.4193C77.2164 30.2166 77.5044 29.9179 77.7177 29.5233C77.9311 29.1286 78.0377 28.6486 78.0377 28.0833C78.0377 27.2406 77.8137 26.5953 77.3657 26.1473C76.9284 25.6886 76.3897 25.4593 75.7497 25.4593C75.1097 25.4593 74.5711 25.6886 74.1337 26.1473C73.7071 26.5953 73.4937 27.2406 73.4937 28.0833C73.4937 28.9259 73.7017 29.5766 74.1177 30.0353C74.5444 30.4833 75.0777 30.7073 75.7177 30.7073ZM84.2249 24.9313C84.5129 24.5259 84.9075 24.1899 85.4089 23.9233C85.9209 23.6459 86.5022 23.5073 87.1529 23.5073C87.9102 23.5073 88.5929 23.6939 89.2009 24.0673C89.8195 24.4406 90.3049 24.9739 90.6569 25.6673C91.0195 26.3499 91.2009 27.1446 91.2009 28.0513C91.2009 28.9579 91.0195 29.7633 90.6569 30.4673C90.3049 31.1606 89.8195 31.6993 89.2009 32.0833C88.5929 32.4673 87.9102 32.6593 87.1529 32.6593C86.5022 32.6593 85.9262 32.5259 85.4249 32.2593C84.9342 31.9926 84.5342 31.6566 84.2249 31.2513V36.7393H81.9849V23.6513H84.2249V24.9313ZM88.9129 28.0513C88.9129 27.5179 88.8009 27.0593 88.5769 26.6753C88.3635 26.2806 88.0755 25.9819 87.7129 25.7793C87.3609 25.5766 86.9769 25.4753 86.5609 25.4753C86.1555 25.4753 85.7715 25.5819 85.4089 25.7953C85.0569 25.9979 84.7689 26.2966 84.5449 26.6913C84.3315 27.0859 84.2249 27.5499 84.2249 28.0833C84.2249 28.6166 84.3315 29.0806 84.5449 29.4753C84.7689 29.8699 85.0569 30.1739 85.4089 30.3873C85.7715 30.5899 86.1555 30.6913 86.5609 30.6913C86.9769 30.6913 87.3609 30.5846 87.7129 30.3713C88.0755 30.1579 88.3635 29.8539 88.5769 29.4593C88.8009 29.0646 88.9129 28.5953 88.9129 28.0513ZM101.069 27.8913C101.069 28.2113 101.047 28.4993 101.005 28.7553H94.5246C94.5779 29.3953 94.8019 29.8966 95.1966 30.2593C95.5913 30.6219 96.0766 30.8033 96.6526 30.8033C97.4846 30.8033 98.0766 30.4459 98.4286 29.7313H100.845C100.589 30.5846 100.098 31.2886 99.3726 31.8433C98.6473 32.3873 97.7566 32.6593 96.7006 32.6593C95.8473 32.6593 95.0793 32.4726 94.3966 32.0993C93.7246 31.7153 93.1966 31.1766 92.8126 30.4833C92.4393 29.7899 92.2526 28.9899 92.2526 28.0833C92.2526 27.1659 92.4393 26.3606 92.8126 25.6673C93.1859 24.9739 93.7086 24.4406 94.3806 24.0673C95.0526 23.6939 95.8259 23.5073 96.7006 23.5073C97.5433 23.5073 98.2953 23.6886 98.9566 24.0513C99.6286 24.4139 100.146 24.9313 100.509 25.6033C100.882 26.2646 101.069 27.0273 101.069 27.8913ZM98.7486 27.2513C98.7379 26.6753 98.5299 26.2166 98.1246 25.8753C97.7193 25.5233 97.2233 25.3473 96.6366 25.3473C96.0819 25.3473 95.6126 25.5179 95.2286 25.8593C94.8553 26.1899 94.6259 26.6539 94.5406 27.2513H98.7486ZM104.944 25.0273C105.232 24.5579 105.605 24.1899 106.064 23.9233C106.533 23.6566 107.066 23.5233 107.664 23.5233V25.8753H107.072C106.368 25.8753 105.834 26.0406 105.472 26.3713C105.12 26.7019 104.944 27.2779 104.944 28.0993V32.5153H102.704V23.6513H104.944V25.0273ZM111.78 25.4913V29.7793C111.78 30.0779 111.85 30.2966 111.988 30.4353C112.138 30.5633 112.383 30.6273 112.724 30.6273H113.764V32.5153H112.356C110.468 32.5153 109.524 31.5979 109.524 29.7633V25.4913H108.468V23.6513H109.524V21.4593H111.78V23.6513H113.764V25.4913H111.78ZM123.855 23.6513L118.367 36.7073H115.983L117.903 32.2913L114.351 23.6513H116.863L119.151 29.8433L121.471 23.6513H123.855ZM128.331 26.9153C128.331 25.8166 128.577 24.8353 129.067 23.9713C129.569 23.0966 130.246 22.4193 131.099 21.9393C131.963 21.4486 132.929 21.2033 133.995 21.2033C135.243 21.2033 136.337 21.5233 137.275 22.1633C138.214 22.8033 138.87 23.6886 139.243 24.8193H136.667C136.411 24.2859 136.049 23.8859 135.579 23.6193C135.121 23.3526 134.587 23.2193 133.979 23.2193C133.329 23.2193 132.747 23.3739 132.235 23.6833C131.734 23.9819 131.339 24.4086 131.051 24.9633C130.774 25.5179 130.635 26.1686 130.635 26.9153C130.635 27.6513 130.774 28.3019 131.051 28.8673C131.339 29.4219 131.734 29.8539 132.235 30.1633C132.747 30.4619 133.329 30.6113 133.979 30.6113C134.587 30.6113 135.121 30.4779 135.579 30.2113C136.049 29.9339 136.411 29.5286 136.667 28.9953H139.243C138.87 30.1366 138.214 31.0273 137.275 31.6673C136.347 32.2966 135.254 32.6113 133.995 32.6113C132.929 32.6113 131.963 32.3713 131.099 31.8913C130.246 31.4006 129.569 30.7233 129.067 29.8593C128.577 28.9953 128.331 28.0139 128.331 26.9153ZM146.149 23.5233C146.821 23.5233 147.418 23.6726 147.941 23.9713C148.463 24.2593 148.869 24.6913 149.157 25.2673C149.455 25.8326 149.605 26.5153 149.605 27.3153V32.5153H147.365V27.6193C147.365 26.9153 147.189 26.3766 146.837 26.0033C146.485 25.6193 146.005 25.4273 145.397 25.4273C144.778 25.4273 144.287 25.6193 143.925 26.0033C143.573 26.3766 143.397 26.9153 143.397 27.6193V32.5153H141.157V20.6753H143.397V24.7553C143.685 24.3713 144.069 24.0726 144.549 23.8593C145.029 23.6353 145.562 23.5233 146.149 23.5233ZM151.159 28.0513C151.159 27.1553 151.335 26.3606 151.687 25.6673C152.05 24.9739 152.535 24.4406 153.143 24.0673C153.762 23.6939 154.45 23.5073 155.207 23.5073C155.868 23.5073 156.444 23.6406 156.935 23.9073C157.436 24.1739 157.836 24.5099 158.135 24.9153V23.6513H160.391V32.5153H158.135V31.2193C157.847 31.6353 157.447 31.9819 156.935 32.2593C156.434 32.5259 155.852 32.6593 155.191 32.6593C154.444 32.6593 153.762 32.4673 153.143 32.0833C152.535 31.6993 152.05 31.1606 151.687 30.4673C151.335 29.7633 151.159 28.9579 151.159 28.0513ZM158.135 28.0833C158.135 27.5393 158.028 27.0753 157.815 26.6913C157.602 26.2966 157.314 25.9979 156.951 25.7953C156.588 25.5819 156.199 25.4753 155.783 25.4753C155.367 25.4753 154.983 25.5766 154.631 25.7793C154.279 25.9819 153.991 26.2806 153.767 26.6753C153.554 27.0593 153.447 27.5179 153.447 28.0513C153.447 28.5846 153.554 29.0539 153.767 29.4593C153.991 29.8539 154.279 30.1579 154.631 30.3713C154.994 30.5846 155.378 30.6913 155.783 30.6913C156.199 30.6913 156.588 30.5899 156.951 30.3873C157.314 30.1739 157.602 29.8753 157.815 29.4913C158.028 29.0966 158.135 28.6273 158.135 28.0833ZM163.715 22.5953C163.32 22.5953 162.989 22.4726 162.723 22.2273C162.467 21.9713 162.339 21.6566 162.339 21.2833C162.339 20.9099 162.467 20.6006 162.723 20.3553C162.989 20.0993 163.32 19.9713 163.715 19.9713C164.109 19.9713 164.435 20.0993 164.691 20.3553C164.957 20.6006 165.091 20.9099 165.091 21.2833C165.091 21.6566 164.957 21.9713 164.691 22.2273C164.435 22.4726 164.109 22.5953 163.715 22.5953ZM164.819 23.6513V32.5153H162.579V23.6513H164.819ZM171.944 23.5233C173 23.5233 173.853 23.8593 174.504 24.5313C175.154 25.1926 175.48 26.1206 175.48 27.3153V32.5153H173.24V27.6193C173.24 26.9153 173.064 26.3766 172.712 26.0033C172.36 25.6193 171.88 25.4273 171.272 25.4273C170.653 25.4273 170.162 25.6193 169.8 26.0033C169.448 26.3766 169.272 26.9153 169.272 27.6193V32.5153H167.032V23.6513H169.272V24.7553C169.57 24.3713 169.949 24.0726 170.408 23.8593C170.877 23.6353 171.389 23.5233 171.944 23.5233Z" fill="url(#paint20_linear_595_1745)"/>
<defs>
<filter id="filter0_d_595_1745" x="0.000574112" y="2.47955e-05" width="53.9793" height="54.0695" filterUnits="userSpaceOnUse" color-interpolation-filters="sRGB">
<feFlood flood-opacity="0" result="BackgroundImageFix"/>
<feColorMatrix in="SourceAlpha" type="matrix" values="0 0 0 0 0 0 0 0 0 0 0 0 0 0 0 0 0 0 127 0" result="hardAlpha"/>
<feOffset/>
<feGaussianBlur stdDeviation="4.99483"/>
<feComposite in2="hardAlpha" operator="out"/>
<feColorMatrix type="matrix" values="0 0 0 0 1 0 0 0 0 1 0 0 0 0 1 0 0 0 1 0"/>
<feBlend mode="normal" in2="BackgroundImageFix" result="effect1_dropShadow_595_1745"/>
<feBlend mode="normal" in="SourceGraphic" in2="effect1_dropShadow_595_1745" result="shape"/>
</filter>
<linearGradient id="paint0_linear_595_1745" x1="39.7755" y1="23.9424" x2="39.7755" y2="35.1485" gradientUnits="userSpaceOnUse">
<stop stop-color="#74B5FF"/>
<stop offset="1" stop-color="#407AFF"/>
</linearGradient>
<linearGradient id="paint1_linear_595_1745" x1="21.0623" y1="33.659" x2="21.0623" y2="37.1234" gradientUnits="userSpaceOnUse">
<stop stop-color="#74B5FF"/>
<stop offset="1" stop-color="#407AFF"/>
</linearGradient>
<linearGradient id="paint2_linear_595_1745" x1="33.6306" y1="35.637" x2="33.6306" y2="41.518" gradientUnits="userSpaceOnUse">
<stop stop-color="#74B5FF"/>
<stop offset="1" stop-color="#407AFF"/>
</linearGradient>
<linearGradient id="paint3_linear_595_1745" x1="32.8929" y1="16.9462" x2="32.8929" y2="20.3908" gradientUnits="userSpaceOnUse">
<stop stop-color="#74B5FF"/>
<stop offset="1" stop-color="#407AFF"/>
</linearGradient>
<linearGradient id="paint4_linear_595_1745" x1="20.3513" y1="12.5576" x2="20.3513" y2="18.4333" gradientUnits="userSpaceOnUse">
<stop stop-color="#74B5FF"/>
<stop offset="1" stop-color="#407AFF"/>
</linearGradient>
<linearGradient id="paint5_linear_595_1745" x1="14.205" y1="18.9208" x2="14.205" y2="30.1271" gradientUnits="userSpaceOnUse">
<stop stop-color="#74B5FF"/>
<stop offset="1" stop-color="#407AFF"/>
</linearGradient>
<linearGradient id="paint6_linear_595_1745" x1="28.3526" y1="33.6871" x2="28.3526" y2="40.6109" gradientUnits="userSpaceOnUse">
<stop stop-color="#74B5FF"/>
<stop offset="1" stop-color="#407AFF"/>
</linearGradient>
<linearGradient id="paint7_linear_595_1745" x1="18.6457" y1="15.5483" x2="18.6457" y2="26.6848" gradientUnits="userSpaceOnUse">
<stop stop-color="#74B5FF"/>
<stop offset="1" stop-color="#407AFF"/>
</linearGradient>
<linearGradient id="paint8_linear_595_1745" x1="16.9069" y1="23.6097" x2="16.9069" y2="33.192" gradientUnits="userSpaceOnUse">
<stop stop-color="#74B5FF"/>
<stop offset="1" stop-color="#407AFF"/>
</linearGradient>
<linearGradient id="paint9_linear_595_1745" x1="15.4826" y1="27.3755" x2="15.4826" y2="40.0096" gradientUnits="userSpaceOnUse">
<stop stop-color="#74B5FF"/>
<stop offset="1" stop-color="#407AFF"/>
</linearGradient>
<linearGradient id="paint10_linear_595_1745" x1="35.3352" y1="27.3848" x2="35.3352" y2="38.5221" gradientUnits="userSpaceOnUse">
<stop stop-color="#74B5FF"/>
<stop offset="1" stop-color="#407AFF"/>
</linearGradient>
<linearGradient id="paint11_linear_595_1745" x1="37.075" y1="20.8778" x2="37.075" y2="30.4599" gradientUnits="userSpaceOnUse">
<stop stop-color="#74B5FF"/>
<stop offset="1" stop-color="#407AFF"/>
</linearGradient>
<linearGradient id="paint12_linear_595_1745" x1="38.5002" y1="14.0599" x2="38.5002" y2="26.6942" gradientUnits="userSpaceOnUse">
<stop stop-color="#74B5FF"/>
<stop offset="1" stop-color="#407AFF"/>
</linearGradient>
<linearGradient id="paint13_linear_595_1745" x1="29.4943" y1="9.98969" x2="29.4943" y2="18.4416" gradientUnits="userSpaceOnUse">
<stop stop-color="#74B5FF"/>
<stop offset="1" stop-color="#407AFF"/>
</linearGradient>
<linearGradient id="paint14_linear_595_1745" x1="25.6281" y1="13.459" x2="25.6281" y2="20.3823" gradientUnits="userSpaceOnUse">
<stop stop-color="#74B5FF"/>
<stop offset="1" stop-color="#407AFF"/>
</linearGradient>
<linearGradient id="paint15_linear_595_1745" x1="24.4867" y1="35.6287" x2="24.4867" y2="44.0798" gradientUnits="userSpaceOnUse">
<stop stop-color="#74B5FF"/>
<stop offset="1" stop-color="#407AFF"/>
</linearGradient>
<linearGradient id="paint16_linear_595_1745" x1="1.08406" y1="0" x2="1.08406" y2="2.16812" gradientUnits="userSpaceOnUse">
<stop stop-color="#74B5FF"/>
<stop offset="1" stop-color="#407AFF"/>
</linearGradient>
<linearGradient id="paint17_linear_595_1745" x1="1.08406" y1="0" x2="1.08406" y2="2.16812" gradientUnits="userSpaceOnUse">
<stop stop-color="#74B5FF"/>
<stop offset="1" stop-color="#407AFF"/>
</linearGradient>
<linearGradient id="paint18_linear_595_1745" x1="1.08406" y1="0" x2="1.08406" y2="2.16812" gradientUnits="userSpaceOnUse">
<stop stop-color="#74B5FF"/>
<stop offset="1" stop-color="#407AFF"/>
</linearGradient>
<linearGradient id="paint19_linear_595_1745" x1="1.08406" y1="0" x2="1.08406" y2="2.16812" gradientUnits="userSpaceOnUse">
<stop stop-color="#74B5FF"/>
<stop offset="1" stop-color="#407AFF"/>
</linearGradient>
<linearGradient id="paint20_linear_595_1745" x1="53.9902" y1="27.0153" x2="176.99" y2="27.0153" gradientUnits="userSpaceOnUse">
<stop stop-color="#1E1E1E"/>
<stop offset="1" stop-color="#848484"/>
</linearGradient>
</defs>
</svg>
